<svg xmlns="http://www.w3.org/2000/svg" viewBox="0 0 24 24"><path fill="#000" d="M13.221 22.753c-1.046.164-2.13.247-3.222.247-5.304 0-9-1.845-9-3.5v-3.018C2.602 17.984 5.984 19 9.999 19c.528 0 1.042-.022 1.548-.057.275-.018.484-.256.465-.532s-.239-.485-.533-.466c-.483.033-.975.055-1.48.055-5.304 0-9-1.845-9-3.5v-3.018C2.602 12.984 5.984 14 9.999 14c1.516 0 2.979-.146 4.349-.436a.5.5 0 0 0-.207-.979A20 20 0 0 1 9.999 13c-5.304 0-9-1.845-9-3.5V6.482C2.602 7.984 5.984 9 9.999 9s7.397-1.016 9-2.518V9.5c0 .646-.533 1.188-.979 1.53a.501.501 0 0 0 .304.897.5.5 0 0 0 .303-.103c.141-.107.252-.223.372-.336v.174a.5.5 0 0 0 1 0V4.5c0-2.523-4.393-4.5-10-4.5s-10 1.977-10 4.5v15c0 2.523 4.393 4.5 10 4.5 1.144 0 2.28-.087 3.376-.259.273-.043.459-.299.417-.571s-.297-.454-.571-.417M9.999 1c5.304 0 9 1.845 9 3.5s-3.696 3.5-9 3.5-9-1.845-9-3.5 3.696-3.5 9-3.5M23.69 16.843a.5.5 0 0 0-.669-.3c-.24.098-.501.02-.624-.194s-.062-.482.145-.638a.497.497 0 0 0 .075-.73c-.817-.927-1.867-1.541-3.039-1.774a.5.5 0 0 0-.596.44c-.026.258-.234.452-.482.452s-.456-.194-.482-.452a.504.504 0 0 0-.596-.44 5.44 5.44 0 0 0-3.039 1.774.5.5 0 0 0 .075.73.487.487 0 0 1 .145.638.49.49 0 0 1-.624.194.497.497 0 0 0-.669.3c-.209.616-.311 1.191-.311 1.756s.102 1.139.311 1.755a.5.5 0 0 0 .669.3c.24-.099.5-.018.624.194a.49.49 0 0 1-.145.638.497.497 0 0 0-.075.73c.816.928 1.867 1.542 3.039 1.774a.5.5 0 0 0 .595-.44c.026-.258.234-.452.482-.452s.456.194.482.452a.504.504 0 0 0 .597.441 5.43 5.43 0 0 0 3.039-1.774.5.5 0 0 0-.075-.73.49.49 0 0 1-.145-.638.494.494 0 0 1 .624-.194.5.5 0 0 0 .669-.3c.209-.616.311-1.19.311-1.756s-.102-1.14-.311-1.756m-.824 2.773c-.553-.036-1.058.252-1.336.734s-.251 1.066.031 1.522c-.507.48-1.101.83-1.748 1.029a1.478 1.478 0 0 0-2.627-.001 4.4 4.4 0 0 1-1.748-1.029c.282-.456.309-1.04.03-1.522s-.792-.768-1.336-.734c-.089-.354-.133-.688-.133-1.016s.044-.662.133-1.016a1.44 1.44 0 0 0 1.336-.734 1.48 1.48 0 0 0-.03-1.522c.507-.48 1.1-.829 1.747-1.029a1.478 1.478 0 0 0 2.628 0c.647.2 1.24.549 1.747 1.029a1.49 1.49 0 0 0-.03 1.522c.278.483.804.77 1.336.734.089.354.133.689.133 1.016s-.044.662-.133 1.017m-4.367-3.517c-1.378 0-2.5 1.121-2.5 2.5s1.122 2.5 2.5 2.5 2.5-1.121 2.5-2.5-1.122-2.5-2.5-2.5m0 4c-.827 0-1.5-.673-1.5-1.5s.673-1.5 1.5-1.5 1.5.673 1.5 1.5-.673 1.5-1.5 1.5"/></svg>
