<svg xmlns="http://www.w3.org/2000/svg" viewBox="0 0 512 512"><path fill="#000" d="M89.247 434.825c10.462 3.755 21.873-1.741 25.579-12.072l52.725-146.99c5.116-14.264 23.592-17.872 33.705-6.612l7.184 7.998c29.457 32.796 83.109 23.706 100.048-17.076l45.565-109.698c5.647-13.595 23.589-16.659 33.411-5.623l13.596 15.277c7.343 8.251 19.984 8.988 28.236 1.645 8.251-7.343 8.988-19.985 1.645-28.236l-13.596-15.277c-29.385-33.02-83.246-24.025-100.232 16.871L271.548 244.73c-5.652 13.608-23.494 16.664-33.349 5.691l-7.184-7.998c-30.328-33.769-85.767-22.954-101.115 19.835l-52.725 146.99c-3.73 10.397 1.675 21.848 12.072 25.577Z"/><path fill="#000" d="M492 472H60c-11.028 0-20-8.972-20-20V20C40 8.954 31.046 0 20 0S0 8.954 0 20v432c0 33.084 26.916 60 60 60h432c11.046 0 20-8.954 20-20 0-11.046-8.954-20-20-20Z"/></svg>
