<svg xmlns="http://www.w3.org/2000/svg" viewBox="0 0 64 64"><g fill="#000"><path d="M28 32c0 .567-.2406 1.1073-.6621 1.4866l-10 9c-.821.7389-2.0856.6724-2.8245-.1487-.7389-.821-.6723-2.0856.1487-2.8245l8.3482-7.5134-8.3482-7.5134c-.821-.7389-.8876-2.0035-.1487-2.8245s2.0035-.8876 2.8245-.1487l10 9c.4215.3793.6621.9196.6621 1.4866Z"/><path d="M48 43c1.1046 0 2-.8954 2-2s-.8954-2-2-2H32c-1.1046 0-2 .8954-2 2s.8954 2 2 2Z"/><path d="M2 18C2 9.1634 9.1634 2 18 2h28c8.8366 0 16 7.1634 16 16v28c0 8.8366-7.1634 16-16 16H18C9.1634 62 2 54.8366 2 46Zm16-12C11.3726 6 6 11.3726 6 18v28c0 6.6274 5.3726 12 12 12h28c6.6274 0 12-5.3726 12-12V18c0-6.6274-5.3726-12-12-12Z"/></g></svg>
